<svg width="209" height="34" viewBox="0 0 209 34" fill="none" xmlns="http://www.w3.org/2000/svg">
<path d="M35.8201 16.78C35.8201 11.23 40.4301 7.66 46.9101 7.66C52.7201 7.66 56.9901 10.65 57.4901 14.68H54.1101C53.7001 12.58 51.0601 10.39 46.9101 10.39C42.2101 10.39 39.1601 13.07 39.1601 16.78C39.1601 20.49 42.2301 23.2 46.9101 23.2C51.0601 23.2 53.7001 20.98 54.1101 18.86H57.4901C57.0101 22.91 52.7201 25.95 46.9101 25.95C40.4101 25.95 35.8201 22.33 35.8201 16.79V16.78Z" fill="#041C20"/>
<path d="M61.3501 16.78C61.3501 11.23 65.7601 7.66 72.6301 7.66C79.5001 7.66 83.8801 11.26 83.8801 16.78C83.8801 22.3 79.4901 25.94 72.6301 25.94C65.7701 25.94 61.3501 22.32 61.3501 16.78ZM80.5701 16.78C80.5701 12.99 77.5501 10.39 72.6301 10.39C67.7101 10.39 64.6901 13 64.6901 16.78C64.6901 20.56 67.7101 23.2 72.6301 23.2C77.5501 23.2 80.5701 20.57 80.5701 16.78Z" fill="#041C20"/>
<path d="M87.7401 8.1H92.4701L105.33 22.52V8.1H108.52V25.47H103.82L90.9601 11.05V25.47H87.7401V8.1Z" fill="#041C20"/>
<path d="M112.38 16.78C112.38 11.23 116.99 7.66 123.47 7.66C129.28 7.66 133.55 10.65 134.05 14.68H130.67C130.26 12.58 127.62 10.39 123.47 10.39C118.77 10.39 115.72 13.07 115.72 16.78C115.72 20.49 118.79 23.2 123.47 23.2C127.62 23.2 130.26 20.98 130.67 18.86H134.05C133.57 22.91 129.28 25.95 123.47 25.95C116.97 25.95 112.38 22.33 112.38 16.79V16.78Z" fill="#041C20"/>
<path d="M137.91 16.78C137.91 11.23 142.32 7.66 149.19 7.66C156.06 7.66 160.44 11.26 160.44 16.78C160.44 22.3 156.05 25.94 149.19 25.94C142.33 25.94 137.91 22.32 137.91 16.78ZM157.13 16.78C157.13 12.99 154.11 10.39 149.19 10.39C144.27 10.39 141.25 13 141.25 16.78C141.25 20.56 144.27 23.2 149.19 23.2C154.11 23.2 157.13 20.57 157.13 16.78Z" fill="#041C20"/>
<path d="M164.3 8.1H177.67C181.99 8.1 184.1 10.37 184.1 13.94C184.1 16.69 182.71 18.84 179.81 19.54L184.01 25.47H180.31L176.47 19.78H167.52V25.47H164.3V8.1ZM176.8 17.17C179.37 17.17 180.78 16.23 180.78 13.94C180.78 11.65 179.36 10.73 176.8 10.73H167.51V17.17H176.8Z" fill="#041C20"/>
<path d="M187.95 8.1H199.04C204.2 8.1 208.02 11.79 208.02 16.79C208.02 21.79 204.2 25.48 199.04 25.48H187.95V8.1ZM197.79 22.72C201.99 22.72 204.7 20.38 204.7 16.79C204.7 13.2 201.99 10.86 197.79 10.86H191.17V22.73H197.79V22.72Z" fill="#041C20"/>
<path d="M24.07 18.69C23.24 21.91 20.31 24.3 16.83 24.3C12.7 24.3 9.35 20.95 9.35 16.82C9.35 12.69 12.7 9.34 16.83 9.34C20.31 9.34 23.24 11.72 24.07 14.95H26.15V7.45H7.5V26.2H26.15V18.7H24.07V18.69Z" fill="#BC785D"/>
<path d="M7.45996 26.2C7.45996 26.2 7.47996 26.22 7.49996 26.23V26.2H7.45996Z" fill="#BC785D"/>
<path d="M26.1699 7.45H26.1799L26.1699 7.44V7.45Z" fill="#BC785D"/>
<path d="M26.1699 26.21C26.1699 26.21 26.1699 26.21 26.1799 26.2H26.1699V26.21Z" fill="#BC785D"/>
<path d="M7.49997 7.42C7.49997 7.42 7.47997 7.44 7.46997 7.45H7.49997V7.42Z" fill="#BC785D"/>
<path d="M16.82 30.07C13.18 30.07 9.89 28.6 7.5 26.23V30.83C10.17 32.61 13.37 33.65 16.82 33.65C20.27 33.65 23.49 32.6 26.17 30.82V26.22C23.77 28.61 20.47 30.08 16.82 30.08V30.07Z" fill="#BC785D"/>
<path d="M16.82 3.58C20.47 3.58 23.77 5.06 26.17 7.44V2.83C23.5 1.04 20.28 0 16.82 0C13.36 0 10.16 1.04 7.5 2.82V7.42C9.89 5.05 13.19 3.58 16.82 3.58Z" fill="#BC785D"/>
<path d="M3.58 16.82C3.58 13.16 5.07 9.84 7.47 7.44H2.85C1.05 10.12 0 13.35 0 16.82C0 20.29 1.05 23.51 2.85 26.19H7.46C5.06 23.79 3.57 20.48 3.57 16.82H3.58Z" fill="#BC785D"/>
</svg>
